<svg width="24" height="25" viewBox="0 0 24 25" fill="none" xmlns="http://www.w3.org/2000/svg">
<path d="M12 2.68042C6.49 2.68042 2 7.17042 2 12.6804C2 18.1904 6.49 22.6804 12 22.6804C17.51 22.6804 22 18.1904 22 12.6804C22 7.17042 17.51 2.68042 12 2.68042ZM15.36 14.9804C15.65 15.2704 15.65 15.7504 15.36 16.0404C15.21 16.1904 15.02 16.2604 14.83 16.2604C14.64 16.2604 14.45 16.1904 14.3 16.0404L12 13.7404L9.7 16.0404C9.55 16.1904 9.36 16.2604 9.17 16.2604C8.98 16.2604 8.79 16.1904 8.64 16.0404C8.35 15.7504 8.35 15.2704 8.64 14.9804L10.94 12.6804L8.64 10.3804C8.35 10.0904 8.35 9.61042 8.64 9.32042C8.93 9.03042 9.41 9.03042 9.7 9.32042L12 11.6204L14.3 9.32042C14.59 9.03042 15.07 9.03042 15.36 9.32042C15.65 9.61042 15.65 10.0904 15.36 10.3804L13.06 12.6804L15.36 14.9804Z" fill="#DB2626"/>
</svg>
