<svg width="24" height="25" viewBox="0 0 24 25" fill="none" xmlns="http://www.w3.org/2000/svg">
<path d="M21.76 16.6004L15.36 5.08042C14.5 3.53042 13.31 2.68042 12 2.68042C10.69 2.68042 9.49998 3.53042 8.63998 5.08042L2.23998 16.6004C1.42998 18.0704 1.33998 19.4804 1.98998 20.5904C2.63998 21.7004 3.91998 22.3104 5.59998 22.3104H18.4C20.08 22.3104 21.36 21.7004 22.01 20.5904C22.66 19.4804 22.57 18.0604 21.76 16.6004ZM11.25 9.68042C11.25 9.27042 11.59 8.93042 12 8.93042C12.41 8.93042 12.75 9.27042 12.75 9.68042V14.6804C12.75 15.0904 12.41 15.4304 12 15.4304C11.59 15.4304 11.25 15.0904 11.25 14.6804V9.68042ZM12.71 18.3904C12.66 18.4304 12.61 18.4704 12.56 18.5104C12.5 18.5504 12.44 18.5804 12.38 18.6004C12.32 18.6304 12.26 18.6504 12.19 18.6604C12.13 18.6704 12.06 18.6804 12 18.6804C11.94 18.6804 11.87 18.6704 11.8 18.6604C11.74 18.6504 11.68 18.6304 11.62 18.6004C11.56 18.5804 11.5 18.5504 11.44 18.5104C11.39 18.4704 11.34 18.4304 11.29 18.3904C11.11 18.2004 11 17.9404 11 17.6804C11 17.4204 11.11 17.1604 11.29 16.9704C11.34 16.9304 11.39 16.8904 11.44 16.8504C11.5 16.8104 11.56 16.7804 11.62 16.7604C11.68 16.7304 11.74 16.7104 11.8 16.7004C11.93 16.6704 12.07 16.6704 12.19 16.7004C12.26 16.7104 12.32 16.7304 12.38 16.7604C12.44 16.7804 12.5 16.8104 12.56 16.8504C12.61 16.8904 12.66 16.9304 12.71 16.9704C12.89 17.1604 13 17.4204 13 17.6804C13 17.9404 12.89 18.2004 12.71 18.3904Z" fill="#FCDF47"/>
</svg>
