<svg width="24" height="25" viewBox="0 0 24 25" fill="none" xmlns="http://www.w3.org/2000/svg">
<path d="M17.53 8.45042C17.46 8.44042 17.39 8.44042 17.32 8.45042C15.77 8.40042 14.54 7.13042 14.54 5.57042C14.54 3.98042 15.83 2.68042 17.43 2.68042C19.02 2.68042 20.32 3.97042 20.32 5.57042C20.31 7.13042 19.08 8.40042 17.53 8.45042Z" fill="#D846EE"/>
<path d="M20.7901 15.3803C19.6701 16.1303 18.1001 16.4103 16.6501 16.2203C17.0301 15.4003 17.2301 14.4903 17.2401 13.5303C17.2401 12.5303 17.0201 11.5803 16.6001 10.7503C18.0801 10.5503 19.6501 10.8303 20.7801 11.5803C22.3601 12.6203 22.3601 14.3303 20.7901 15.3803Z" fill="#D846EE"/>
<path d="M6.44016 8.45042C6.51016 8.44042 6.58016 8.44042 6.65016 8.45042C8.20016 8.40042 9.43016 7.13042 9.43016 5.57042C9.43016 3.97042 8.14016 2.68042 6.54016 2.68042C4.95016 2.68042 3.66016 3.97042 3.66016 5.57042C3.66016 7.13042 4.89016 8.40042 6.44016 8.45042Z" fill="#D846EE"/>
<path d="M6.55012 13.5305C6.55012 14.5005 6.76012 15.4205 7.14012 16.2505C5.73012 16.4005 4.26012 16.1005 3.18012 15.3905C1.60012 14.3405 1.60012 12.6305 3.18012 11.5805C4.25012 10.8605 5.76012 10.5705 7.18012 10.7305C6.77012 11.5705 6.55012 12.5205 6.55012 13.5305Z" fill="#D846EE"/>
<path d="M12.1198 16.5504C12.0398 16.5404 11.9498 16.5404 11.8598 16.5504C10.0198 16.4904 8.5498 14.9804 8.5498 13.1204C8.5598 11.2204 10.0898 9.68042 11.9998 9.68042C13.8998 9.68042 15.4398 11.2204 15.4398 13.1204C15.4298 14.9804 13.9698 16.4904 12.1198 16.5504Z" fill="#D846EE"/>
<path d="M8.8698 18.6203C7.3598 19.6303 7.3598 21.2903 8.8698 22.2903C10.5898 23.4403 13.4098 23.4403 15.1298 22.2903C16.6398 21.2803 16.6398 19.6203 15.1298 18.6203C13.4198 17.4703 10.5998 17.4703 8.8698 18.6203Z" fill="#D846EE"/>
</svg>
