<svg width="24" height="25" viewBox="0 0 24 25" fill="none" xmlns="http://www.w3.org/2000/svg">
<path d="M12 2.68042C6.49 2.68042 2 7.17042 2 12.6804C2 18.1904 6.49 22.6804 12 22.6804C17.51 22.6804 22 18.1904 22 12.6804C22 7.17042 17.51 2.68042 12 2.68042ZM16.78 10.3804L11.11 16.0504C10.97 16.1904 10.78 16.2704 10.58 16.2704C10.38 16.2704 10.19 16.1904 10.05 16.0504L7.22 13.2204C6.93 12.9304 6.93 12.4504 7.22 12.1604C7.51 11.8704 7.99 11.8704 8.28 12.1604L10.58 14.4604L15.72 9.32042C16.01 9.03042 16.49 9.03042 16.78 9.32042C17.07 9.61042 17.07 10.0804 16.78 10.3804Z" fill="#22C45E"/>
</svg>
